<?xml version="1.0" encoding="iso-8859-1"?>
<!-- Generator: Adobe Illustrator 19.1.0, SVG Export Plug-In . SVG Version: 6.00 Build 0)  -->
<svg version="1.1" id="Layer_1" xmlns="http://www.w3.org/2000/svg" xmlns:xlink="http://www.w3.org/1999/xlink" x="0px" y="0px"
	 viewBox="0 0 257.68 257.68" style="enable-background:new 0 0 257.68 257.68;" xml:space="preserve">
<g>
	<g>
		<g>
			<path style="fill:#F7941E;" d="M128.82,253.774c-68.925,0-125-56.075-125-125s56.075-125,125-125s125,56.075,125,125
				S197.745,253.774,128.82,253.774z M128.82,22.6C70.276,22.6,22.646,70.23,22.646,128.774S70.276,234.948,128.82,234.948
				s106.174-47.629,106.174-106.174S187.365,22.6,128.82,22.6z"/>
		</g>
		<g>
			<path style="fill:#F7941E;" d="M128.82,253.774c-68.925,0-125-56.075-125-125s56.075-125,125-125s125,56.075,125,125
				S197.745,253.774,128.82,253.774z M128.82,22.6C70.276,22.6,22.646,70.23,22.646,128.774S70.276,234.948,128.82,234.948
				s106.174-47.629,106.174-106.174S187.365,22.6,128.82,22.6z"/>
		</g>
		<g>
			<circle style="fill:#00AEEF;" cx="128.82" cy="128.774" r="115.587"/>
			<path style="fill:#FFFFFF;" d="M128.82,246.576c-64.956,0-117.802-52.846-117.802-117.802S63.864,10.972,128.82,10.972
				s117.802,52.846,117.802,117.802S193.776,246.576,128.82,246.576z M128.82,15.402c-62.514,0-113.372,50.859-113.372,113.372
				S66.307,242.146,128.82,242.146s113.372-50.859,113.372-113.372S191.334,15.402,128.82,15.402z"/>
		</g>
		<path style="fill:#1C75BC;" d="M64.397,228.212h-15.07c-5.43,0-9.873-4.443-9.873-9.873v0c0-5.43,4.443-9.873,9.873-9.873h15.07
			c5.43,0,9.873,4.443,9.873,9.873v0C74.27,223.77,69.827,228.212,64.397,228.212z"/>
		<g>
			<path style="fill:#FFFFFF;" d="M178.307,56.736c-2.517-10.147-8.677-21.738-18.296-26.58
				c-11.664-5.872-29.537,6.658-40.233,18.161c-60.031,0.823-73.413,38.339-75.676,83.72c-0.12,2.404-0.339,6.055-0.792,9.543
				c-1.972,3.332-3.367,10.629-5.701,23.13c-1.919,10.278-2.631,16.28-2.31,23.482c0.326,7.299,0.541,11.014,3.08,14.243
				c4.821,6.132,15.182,6.446,23.097,4.619c4.451-1.027,6.726-3.668,7.735-6.818c2.599-4.185,3.08-17.677-0.619-37.356
				c-0.528-2.809-1.069-5.14-1.61-7.076c3.575-9.898,10.896-14.09,11.677-19.292c0.282,1.717,0.56,3.732,0.829,5.954l-1.563,5.366
				l1.681-0.367l-2.789,4.797l4.245-1.661l-2.03,12.366l3.138-1.477l-2.03,9.228l2.03-1.846l-3.257,11.505l3.995-2.276l-4.341,7.819
				H83c0.175,2.944,0.272,4.722,0.272,4.722l130.31-46.86C217.54,94.047,209.238,68.531,178.307,56.736z"/>
		</g>
		<g>
			<g>
				<path style="fill:#FFFFFF;" d="M60.345,212.569c-3.175,0-5.937-2.362-6.567-5.617l-1.801-9.299
					c-0.73-3.771,1.602-7.476,5.198-8.26c0.448-0.098,0.906-0.146,1.361-0.146c3.175,0,5.937,2.362,6.567,5.617l1.801,9.299
					c0.73,3.771-1.602,7.476-5.198,8.26C61.258,212.521,60.8,212.569,60.345,212.569z"/>
				<path style="fill:#FFFFFF;" d="M58.535,190.747c2.413,0,4.592,1.803,5.095,4.403l1.801,9.299
					c0.575,2.97-1.245,5.898-4.045,6.508h0c-0.349,0.076-0.697,0.113-1.041,0.113c-2.413,0-4.592-1.803-5.095-4.403l-1.801-9.299
					c-0.575-2.97,1.245-5.898,4.045-6.508l0,0C57.843,190.783,58.192,190.747,58.535,190.747 M58.535,187.747L58.535,187.747
					c-0.562,0-1.127,0.061-1.68,0.181c-4.386,0.956-7.235,5.446-6.351,10.01l1.801,9.299c0.767,3.959,4.148,6.832,8.041,6.832
					c0.562,0,1.127-0.061,1.68-0.181c4.386-0.956,7.235-5.446,6.351-10.01l-1.801-9.299
					C65.809,190.62,62.428,187.747,58.535,187.747L58.535,187.747z"/>
			</g>
			<g>
				<path style="fill:#FFFFFF;" d="M71.484,212.34c-3.635,0-6.708-3.305-6.996-7.522l-0.533-7.816
					c-0.156-2.282,0.556-4.478,1.953-6.024c1.144-1.266,2.663-1.993,4.276-2.047l0.195-0.003c3.634,0,6.706,3.304,6.994,7.521
					l0.533,7.816c0.156,2.282-0.557,4.479-1.954,6.025c-1.144,1.267-2.663,1.993-4.275,2.047L71.484,212.34z"/>
				<path style="fill:#FFFFFF;" d="M70.379,190.426c2.807,0,5.265,2.72,5.498,6.125l0.533,7.816c0.236,3.463-1.916,6.375-4.783,6.47
					c-0.048,0.002-0.097,0.002-0.145,0.002c-2.807,0-5.265-2.72-5.498-6.125l-0.533-7.816c-0.236-3.463,1.916-6.375,4.783-6.47h0
					C70.283,190.427,70.331,190.426,70.379,190.426 M70.38,187.426c-0.082,0-0.163,0.001-0.245,0.004
					c-2.024,0.067-3.92,0.97-5.339,2.541c-1.668,1.847-2.52,4.446-2.337,7.132l0.533,7.816c0.341,5.002,4.071,8.921,8.491,8.921
					c0.081,0,0.163-0.001,0.245-0.004c2.024-0.067,3.92-0.97,5.339-2.541c1.668-1.847,2.52-4.446,2.337-7.132l-0.533-7.816
					C78.528,191.344,74.799,187.426,70.38,187.426L70.38,187.426z"/>
			</g>
			<g>
				<path style="fill:#FFFFFF;" d="M49.731,217.467c-3.175,0-5.937-2.362-6.567-5.617l-1.801-9.3
					c-0.73-3.77,1.601-7.475,5.198-8.259c0.448-0.098,0.906-0.146,1.361-0.146c3.175,0,5.938,2.362,6.568,5.617l1.801,9.299
					c0.73,3.771-1.602,7.476-5.198,8.26C50.645,217.418,50.187,217.467,49.731,217.467z"/>
				<path style="fill:#FFFFFF;" d="M47.922,195.644c2.413,0,4.592,1.803,5.095,4.403l1.801,9.299
					c0.575,2.97-1.245,5.898-4.045,6.508h0c-0.349,0.076-0.697,0.113-1.041,0.113c-2.413,0-4.592-1.803-5.095-4.403l-1.801-9.299
					c-0.575-2.97,1.245-5.898,4.045-6.508h0C47.23,195.681,47.578,195.644,47.922,195.644 M47.922,192.644
					c-0.562,0-1.127,0.061-1.68,0.181c-4.386,0.956-7.235,5.446-6.351,10.01l1.801,9.299c0.767,3.959,4.148,6.832,8.041,6.832
					c0.562,0,1.127-0.061,1.68-0.181c4.386-0.956,7.235-5.446,6.351-10.01l-1.801-9.299
					C55.195,195.517,51.814,192.644,47.922,192.644L47.922,192.644z"/>
			</g>
			<g>
				<path style="fill:#FFFFFF;" d="M39.331,221.346c-2.869,0-5.503-2.105-6.554-5.238l-2.478-7.379
					c-1.343-4,0.302-8.433,3.667-9.883c0.732-0.314,1.503-0.475,2.292-0.475c2.869,0,5.503,2.105,6.555,5.238l2.478,7.379
					c1.343,4-0.302,8.433-3.667,9.883C40.89,221.186,40.119,221.346,39.331,221.346z"/>
				<path style="fill:#FFFFFF;" d="M36.257,199.871c2.158,0,4.264,1.628,5.132,4.215l2.478,7.38c1.098,3.27-0.179,6.882-2.838,8.027
					l0,0c-0.555,0.239-1.129,0.353-1.698,0.353c-2.158,0-4.264-1.628-5.132-4.215l-2.478-7.38c-1.098-3.27,0.179-6.882,2.838-8.027
					l0,0C35.114,199.985,35.687,199.871,36.257,199.871 M36.257,196.871L36.257,196.871c-0.994,0-1.965,0.201-2.885,0.597
					c-4.133,1.78-6.108,6.936-4.496,11.737l2.478,7.38c1.257,3.744,4.463,6.26,7.976,6.26c0.994,0,1.965-0.201,2.885-0.597
					c4.133-1.78,6.108-6.936,4.496-11.737l-2.478-7.38C42.976,199.387,39.77,196.871,36.257,196.871L36.257,196.871z"/>
			</g>
		</g>
		<g>
			<path style="fill:#00AEEF;" d="M61.387,210.957L61.387,210.957c-2.8,0.61-5.561-1.321-6.136-4.29l-1.801-9.299
				c-0.575-2.97,1.245-5.898,4.045-6.508l0,0c2.8-0.61,5.561,1.321,6.136,4.29l1.801,9.299
				C66.007,207.418,64.187,210.347,61.387,210.957z"/>
			<path style="fill:#00AEEF;" d="M71.627,210.837L71.627,210.837c-2.867,0.096-5.406-2.66-5.642-6.123l-0.533-7.816
				c-0.236-3.463,1.916-6.375,4.783-6.47h0c2.867-0.096,5.406,2.66,5.642,6.123l0.533,7.816
				C76.647,207.83,74.494,210.742,71.627,210.837z"/>
			<path style="fill:#00AEEF;" d="M50.773,215.854L50.773,215.854c-2.8,0.61-5.561-1.321-6.136-4.29l-1.801-9.299
				c-0.575-2.97,1.245-5.898,4.045-6.508h0c2.8-0.61,5.561,1.321,6.136,4.29l1.801,9.299
				C55.393,212.316,53.573,215.244,50.773,215.854z"/>
			<path style="fill:#00AEEF;" d="M41.028,219.493L41.028,219.493c-2.659,1.145-5.733-0.593-6.83-3.863l-2.478-7.38
				c-1.098-3.27,0.179-6.882,2.838-8.027l0,0c2.659-1.145,5.733,0.593,6.83,3.863l2.478,7.38
				C44.965,214.736,43.687,218.348,41.028,219.493z"/>
		</g>
		<g>
			<g>
				<g>
					<path style="fill:#1C75BC;stroke:#FFFFFF;stroke-width:7;stroke-miterlimit:10;" d="M218.664,191.523
						c-37.917,5.075-75.962,7.616-114.134,7.159c-6.517-0.209-11.701-7.693-11.815-14.999c-0.977-22.307-1.954-44.614-2.931-66.921
						c-0.591-7.519,4.64-14.876,11.216-15.016c40.532-0.491,80.932,2.208,121.193,7.602c5.54,1.021,11.799,6.433,11.216,13.761
						c-0.977,18.251-1.954,36.502-2.931,54.753C230.224,184.98,224.269,190.436,218.664,191.523z"/>
				</g>
				<path style="fill:#1C75BC;stroke:#FFFFFF;stroke-width:7;stroke-miterlimit:10;" d="M182.994,196.09l3.596,27.461
					c0.243,1.856-1.113,3.539-2.978,3.696l-30.882,2.601c-1.984,0.167-3.658-1.456-3.552-3.444l1.634-30.711
					c0.094-1.774,1.584-3.151,3.36-3.106l25.653,0.649C181.439,193.276,182.785,194.487,182.994,196.09z"/>
				<path style="fill:#1C75BC;stroke:#FFFFFF;stroke-width:7;stroke-miterlimit:10;" d="M152.031,216.607l-16.944,0.506
					c-2.046,0.061-2.661,2.811-0.836,3.738l16.438,8.346c1.271,0.645,2.786-0.226,2.868-1.649l0.506-8.851
					C154.129,217.538,153.189,216.572,152.031,216.607z"/>
			</g>
			<g>
				<g>
					<path style="fill:#1C75BC;" d="M218.664,191.523c-37.917,5.075-75.962,7.616-114.134,7.159
						c-6.517-0.209-11.701-7.693-11.815-14.999c-0.977-22.307-1.954-44.614-2.931-66.921c-0.591-7.519,4.64-14.876,11.216-15.016
						c40.532-0.491,80.932,2.208,121.193,7.602c5.54,1.021,11.799,6.433,11.216,13.761c-0.977,18.251-1.954,36.502-2.931,54.753
						C230.224,184.98,224.269,190.436,218.664,191.523z"/>
				</g>
				<path style="fill:#1C75BC;" d="M182.994,196.09l3.596,27.461c0.243,1.856-1.113,3.539-2.978,3.696l-30.882,2.601
					c-1.984,0.167-3.658-1.456-3.552-3.444l1.634-30.711c0.094-1.774,1.584-3.151,3.36-3.106l25.653,0.649
					C181.439,193.276,182.785,194.487,182.994,196.09z"/>
				<path style="fill:#1C75BC;" d="M152.031,216.607l-16.944,0.506c-2.046,0.061-2.661,2.811-0.836,3.738l16.438,8.346
					c1.271,0.645,2.786-0.226,2.868-1.649l0.506-8.851C154.129,217.538,153.189,216.572,152.031,216.607z"/>
			</g>
		</g>
		<path style="fill:#FFFFFF;stroke:#FFFFFF;stroke-width:2;stroke-miterlimit:10;" d="M119.638,49.455l-7.198-6.275l3.322,7.567
			l-7.383-4.245l0.554,3.138l-5.906-3.691l3.507,6.645l-13.843-3.691l3.507,3.138l-2.399,2.953l-10.336-4.245l2.584,3.691
			L75.71,53.516l9.229,4.061l-13.843,0.923l6.645,2.584L63.713,72.157l-6.645,1.292l3.322,1.661l-9.967,4.983
			c0,0,5.353,0.738,6.091,1.292c0.738,0.554-5.537,3.322-5.537,3.322l4.799,0.554l-5.537,4.245l2.215,2.399l-5.906,4.799l4.43,2.769
			l-6.829,6.275l6.275-0.185l-7.383,6.46l6.645-0.554l-11.628,9.044l9.413-0.554l-4.799,4.43l7.198,0.738l-9.782,4.43l8.306,1.661
			l-8.49,6.46l5.353,0.923l-2.03,5.722l-8.49,1.846l7.937,1.661l-0.185,3.876l-4.614,1.661l3.322,2.215l-5.906,4.245h6.091
			l-7.198,6.645l4.245,0.185l-4.245,4.614l4.614,0.185l-6.645,9.967l4.983-0.554l-5.537,8.675l8.306-5.353l6.46-7.383l25.84-101.883
			L119.638,49.455z"/>
		<polygon style="fill:#FFFFFF;" points="154.991,26.591 141.971,22.139 149.566,26.869 138.499,27.425 143.707,28.538 
			132.64,30.208 138.499,31.599 126.999,35.494 133.508,36.607 155.859,29.373 165.84,34.937 174.086,40.78 166.274,32.99 
			172.35,32.99 161.5,29.651 164.104,25.478 159.113,27.982 155.859,22.973 		"/>
		<polygon style="fill:#FFFFFF;" points="183.13,59.237 193.097,60.345 187.006,62.56 206.386,65.882 195.311,66.989 
			210.262,76.956 183.13,70.312 		"/>
	</g>
	<g>
		<circle style="fill:#FFFFFF;" cx="170.081" cy="152.018" r="13.554"/>
		<g>
			<path style="fill:#1C75BC;" d="M176.452,151.733H163.71c-0.491,0-0.882,0.051-0.845,0.613c0.306,4.634,2.632,8.826,5.669,9.796
				c0.137,0.044,0.261,0.13,0.362,0.245l0.695,0.798c0.27,0.31,0.712,0.31,0.982,0l0.695-0.798c0.101-0.116,0.225-0.202,0.362-0.245
				c3.036-0.97,5.363-5.162,5.668-9.796C177.334,151.784,176.943,151.733,176.452,151.733z"/>
			<path style="fill:#1C75BC;" d="M178.103,149.984c-0.371-3.533-3.023-6.898-6.456-7.574c-0.254-0.05-0.359-0.218-0.278-0.559l0,0
				c0.079-0.408,0.288-1.048,0.093-1.143l-0.601-0.067c-0.401-0.04-0.575-0.027-0.604,0.026l-0.364,1.387
				c-0.062,0.126-0.186,0.211-0.326,0.22c-3.928,0.247-7.093,3.815-7.508,7.695c-0.049,0.462,0.31,0.525,0.775,0.525h14.491
				C177.785,150.495,178.151,150.441,178.103,149.984z"/>
		</g>
	</g>
</g>
</svg>
