<?xml version="1.0" encoding="iso-8859-1"?>
<!-- Generator: Adobe Illustrator 19.1.0, SVG Export Plug-In . SVG Version: 6.00 Build 0)  -->
<svg version="1.1" id="Layer_1" xmlns="http://www.w3.org/2000/svg" xmlns:xlink="http://www.w3.org/1999/xlink" x="0px" y="0px"
	 viewBox="0 0 257.68 257.68" style="enable-background:new 0 0 257.68 257.68;" xml:space="preserve">
<path style="fill:#FFFFFF;stroke:#00AEEF;stroke-width:3;stroke-linecap:round;stroke-miterlimit:10;" d="M222.194,109.347
	c-40.261-5.394-80.662-8.093-121.193-7.602c-6.576,0.14-11.807,7.497-11.216,15.016c0.977,22.307,1.954,44.614,2.931,66.921
	c0.114,7.306,5.298,14.79,11.815,14.999c15.41,0.185,30.8-0.128,46.169-0.89l-1.004,18.885l-14.608,0.436
	c-2.046,0.061-2.661,2.811-0.836,3.738l15.917,8.081c0.653,0.635,1.569,1,2.562,0.916l30.882-2.601
	c1.865-0.157,3.221-1.84,2.978-3.696l-3.596-27.461c-0.025-0.189-0.068-0.371-0.123-0.548c11.943-1.08,23.874-2.424,35.792-4.019
	c5.605-1.087,11.56-6.543,11.815-13.661c0.977-18.251,1.954-36.502,2.931-54.753C233.993,115.78,227.734,110.368,222.194,109.347z"
	/>
<g>
	<path style="fill:none;stroke:#00AEEF;stroke-width:0.5;stroke-miterlimit:10;" d="M170.081,138.464
		c-7.485,0-13.554,6.068-13.554,13.554s6.068,13.554,13.554,13.554s13.554-6.068,13.554-13.554S177.566,138.464,170.081,138.464z
		 M171.629,162.143c-0.137,0.044-0.261,0.13-0.362,0.245l-0.695,0.798c-0.27,0.31-0.712,0.31-0.982,0l-0.695-0.798
		c-0.101-0.116-0.225-0.202-0.362-0.245c-3.036-0.97-5.363-5.162-5.669-9.797c-0.037-0.562,0.354-0.613,0.845-0.613h12.742
		c0.491,0,0.882,0.051,0.845,0.613C176.992,156.981,174.665,161.172,171.629,162.143z M177.326,150.495h-14.491
		c-0.465,0-0.825-0.063-0.775-0.525c0.414-3.88,3.58-7.448,7.508-7.695c0.14-0.009,0.264-0.094,0.326-0.22l0.364-1.387
		c0.029-0.052,0.203-0.066,0.604-0.026l0.601,0.067c0.196,0.095-0.013,0.735-0.093,1.143c-0.081,0.341,0.024,0.509,0.278,0.559
		c3.433,0.676,6.085,4.041,6.456,7.574C178.151,150.441,177.785,150.495,177.326,150.495z"/>
	<path style="fill:none;stroke:#00AEEF;stroke-width:0.5;stroke-miterlimit:10;" d="M176.452,151.733H163.71
		c-0.491,0-0.882,0.051-0.845,0.613c0.306,4.634,2.632,8.826,5.669,9.797c0.137,0.044,0.261,0.13,0.362,0.245l0.695,0.798
		c0.27,0.31,0.712,0.31,0.982,0l0.695-0.798c0.101-0.116,0.225-0.202,0.362-0.245c3.036-0.97,5.363-5.162,5.669-9.797
		C177.334,151.784,176.943,151.733,176.452,151.733z"/>
	<path style="fill:none;stroke:#00AEEF;stroke-width:0.5;stroke-miterlimit:10;" d="M171.647,142.41
		c-0.254-0.05-0.359-0.218-0.278-0.559c0.079-0.408,0.288-1.048,0.093-1.143l-0.601-0.067c-0.401-0.04-0.575-0.027-0.604,0.026
		l-0.364,1.387c-0.062,0.126-0.186,0.211-0.326,0.22c-3.928,0.247-7.093,3.815-7.508,7.695c-0.049,0.462,0.31,0.525,0.775,0.525
		h14.491c0.459,0,0.825-0.054,0.777-0.511C177.732,146.451,175.08,143.086,171.647,142.41z"/>
</g>
<path style="fill:none;stroke:#00AEEF;stroke-width:3;stroke-miterlimit:10;" d="M67.814,229.509"/>
<path style="fill:none;stroke:#00AEEF;stroke-width:3;stroke-linecap:round;stroke-miterlimit:10;" d="M32.69,196.786
	c-13.642-19.225-21.672-42.697-21.672-68.012c0-64.956,52.846-117.802,117.802-117.802s117.802,52.846,117.802,117.802
	S193.776,246.576,128.82,246.576c-21.718,0-42.079-5.911-59.565-16.205"/>
<path style="fill:none;stroke:#00AEEF;stroke-width:3;stroke-linecap:round;stroke-miterlimit:10;" d="M56.965,230.987
	c20.341,14.346,45.128,22.787,71.855,22.787c68.925,0,125-56.075,125-125s-56.075-125-125-125s-125,56.075-125,125
	c0,27.992,9.255,53.86,24.857,74.717"/>
<path style="fill:none;stroke:#00AEEF;stroke-width:2;stroke-linecap:round;stroke-miterlimit:10;" d="M213.543,105.244
	c-1.481-12.295-4.744-22.149-10.193-29.981l6.911,1.693l-12.608-8.406c-0.573-0.554-1.165-1.091-1.77-1.618l10.503-1.05
	l-15.269-2.618c-0.712-0.481-1.442-0.948-2.191-1.403l4.171-1.517l-8.738-0.971c-1.916-0.944-3.925-1.827-6.052-2.638
	c-1.717-6.924-5.135-14.518-10.187-20.183l5.966,4.227l-7.812-7.79h6.076l-10.85-3.339l2.604-4.173l-4.991,2.504l-3.255-5.008
	l-0.868,3.617l-13.02-4.452l7.595,4.73l-11.067,0.556l5.208,1.113l-11.067,1.669l5.859,1.391l-11.501,3.895l6.267,1.071
	c-5,3.47-9.696,7.674-13.488,11.752c-0.475,0.007-0.938,0.022-1.408,0.033l-5.931-5.17l2.327,5.3
	c-0.9,0.045-1.788,0.099-2.666,0.162l-3.722-2.14l0.427,2.42c-0.293,0.029-0.58,0.063-0.87,0.095l-4.91-3.068l1.818,3.445
	c-2.174,0.298-4.272,0.655-6.296,1.07l-5.858-1.562L95.26,51.2c-2.18,0.536-4.27,1.142-6.272,1.816l-5.525-2.269l2.388,3.412
	c-0.182,0.071-0.364,0.141-0.544,0.214l-9.596-0.857l5.76,2.534c-1.334,0.637-2.625,1.308-3.868,2.015l-6.506,0.434l3.537,1.376
	c-5.495,3.581-10.035,7.906-13.785,12.84l-3.78,0.735l2.376,1.188c-0.329,0.471-0.651,0.948-0.966,1.429l-8.054,4.027
	c0,0,3.353,0.463,5.116,0.931c-0.344,0.644-0.675,1.298-1,1.957c-1.601,0.86-3.563,1.726-3.563,1.726l2.604,0.3
	c-0.432,0.95-0.847,1.912-1.243,2.889l-2.099,1.609l1.044,1.13c-0.369,1.013-0.72,2.04-1.056,3.079l-3.679,2.989l2.351,1.47
	c-0.372,1.369-0.716,2.758-1.039,4.164l-3.711,3.41l2.994-0.088c-0.22,1.095-0.424,2.202-0.619,3.316l-3.483,3.048l3.023-0.252
	c-0.145,0.938-0.28,1.883-0.409,2.833l-7.598,5.909L45,120.106c-0.081,0.779-0.156,1.561-0.228,2.346l-2.1,1.938l1.916,0.196
	c-0.082,1.008-0.158,2.019-0.227,3.037l-4.273,1.935l4.103,0.821c-0.031,0.552-0.062,1.104-0.089,1.658
	c-0.037,0.744-0.085,1.618-0.145,2.559l-4.053,3.084l3.763,0.649c-0.1,1.072-0.215,2.168-0.356,3.251
	c-0.461,0.778-0.889,1.783-1.306,3.01l-7.268,1.58l6.404,1.34c-0.389,1.481-0.78,3.175-1.188,5.109l-2.079,0.748l1.691,1.127
	c-0.169,0.835-0.343,1.722-0.52,2.634l-3.755,2.699h3.237c-0.193,1.02-0.394,2.083-0.601,3.189l-3.744,3.456l3.078,0.134
	c-0.101,0.559-0.198,1.102-0.291,1.635l-2.787,3.03l2.266,0.091c-0.257,1.623-0.473,3.141-0.648,4.587l-3.649,5.473l3.187-0.354
	c-0.053,0.932-0.087,1.854-0.102,2.775l-3.638,5.7l3.665-2.362c0.011,0.335,0.021,0.67,0.036,1.009
	c0.202,4.531,0.363,7.68,1.062,10.19"/>
<path style="fill:none;stroke:#00AEEF;stroke-width:2;stroke-linecap:round;stroke-miterlimit:10;" d="M71.241,188.997
	c0.131-6.543-0.636-15.404-2.651-26.118c-0.528-2.809-1.069-5.14-1.61-7.076c3.575-9.898,10.896-14.09,11.677-19.292
	c0.282,1.717,0.56,3.732,0.829,5.954l-1.562,5.366l1.681-0.367l-2.789,4.797l4.245-1.661l-2.03,12.366l3.138-1.477l-2.03,9.229
	l2.03-1.846l-3.257,11.505l3.995-2.276l-4.341,7.819H83"/>
<g>
	<path style="fill:none;stroke:#00AEEF;stroke-width:2;stroke-linecap:round;stroke-miterlimit:10;" d="M43.467,209.863
		c0.106,0.112,0.211,0.225,0.318,0.336"/>
	<path style="fill:none;stroke:#00AEEF;stroke-width:2;stroke-linecap:round;stroke-miterlimit:10;" d="M44.708,211.155
		c-0.31-0.316-0.616-0.635-0.923-0.955"/>
	
		<line style="fill:none;stroke:#00AEEF;stroke-width:2;stroke-linecap:round;stroke-miterlimit:10;" x1="54.798" y1="208.466" x2="56.053" y2="208.466"/>
	<path style="fill:none;stroke:#00AEEF;stroke-width:2;stroke-linecap:round;stroke-miterlimit:10;" d="M43.785,210.199
		c-0.055,0.038-0.114,0.07-0.169,0.108"/>
	<path style="fill:none;stroke:#00AEEF;stroke-width:2;stroke-linecap:round;stroke-miterlimit:10;" d="M44.441,209.778
		c-0.226,0.13-0.442,0.275-0.656,0.422"/>
	<path style="fill:none;stroke:#00AEEF;stroke-width:2;stroke-linecap:round;stroke-miterlimit:10;" d="M53.182,228.212h-3.855
		c-4.393,0-8.121-2.914-9.391-6.899"/>
	<path style="fill:none;stroke:#00AEEF;stroke-width:2;stroke-linecap:round;stroke-miterlimit:10;" d="M39.594,219.924
		c0.078,0.476,0.198,0.938,0.342,1.389"/>
	<path style="fill:none;stroke:#00AEEF;stroke-width:2;stroke-linecap:round;stroke-miterlimit:10;" d="M65.602,228.131
		c-0.396,0.049-0.797,0.082-1.205,0.082H53.182"/>
	<path style="fill:none;stroke:#00AEEF;stroke-width:2;stroke-linecap:round;stroke-miterlimit:10;" d="M65.602,228.131
		c4.866-0.6,8.668-4.77,8.668-9.791v0c0-2.998-1.358-5.69-3.485-7.505"/>
	<path style="fill:none;stroke:#00AEEF;stroke-width:2;stroke-linecap:round;stroke-miterlimit:10;" d="M64.93,208.493
		c0.66-1.15,0.942-2.547,0.668-3.961l-1.801-9.299c-0.575-2.97-3.336-4.9-6.136-4.29s-4.62,3.539-4.045,6.508l1.801,9.299
		c0.121,0.624,0.343,1.198,0.636,1.716"/>
	<path style="fill:none;stroke:#00AEEF;stroke-width:2;stroke-linecap:round;stroke-miterlimit:10;" d="M64.93,208.493
		c-0.726,1.264-1.911,2.228-3.377,2.547h0c-2.212,0.482-4.395-0.625-5.5-2.575"/>
	<path style="fill:none;stroke:#00AEEF;stroke-width:2;stroke-linecap:round;stroke-miterlimit:10;" d="M70.785,210.834
		c0.33,0.066,0.667,0.098,1.009,0.087c2.867-0.096,5.019-3.007,4.783-6.47l-0.533-7.816c-0.236-3.463-2.775-6.218-5.642-6.123
		s-5.019,3.007-4.783,6.47l0.533,7.816c0.116,1.704,0.792,3.234,1.787,4.339"/>
	<path style="fill:none;stroke:#00AEEF;stroke-width:2;stroke-linecap:round;stroke-miterlimit:10;" d="M67.939,209.138
		c0.787,0.874,1.773,1.481,2.846,1.697"/>
	<path style="fill:none;stroke:#00AEEF;stroke-width:2;stroke-linecap:round;stroke-miterlimit:10;" d="M44.441,209.778
		l-1.439-7.429c-0.575-2.97,1.245-5.898,4.045-6.508h0c2.8-0.61,5.561,1.321,6.136,4.29l1.614,8.336"/>
	<path style="fill:none;stroke:#00AEEF;stroke-width:2;stroke-linecap:round;stroke-miterlimit:10;" d="M49.799,216.045
		c0.376,0.008,0.758-0.024,1.141-0.107c2.8-0.61,4.62-3.539,4.045-6.508l-0.187-0.963"/>
	<path style="fill:none;stroke:#00AEEF;stroke-width:2;stroke-linecap:round;stroke-miterlimit:10;" d="M49.799,216.045
		c-2.373-0.049-4.499-1.834-4.995-4.398l-0.095-0.493"/>
	
		<line style="fill:none;stroke:#00AEEF;stroke-width:2;stroke-linecap:round;stroke-miterlimit:10;" x1="44.441" y1="209.778" x2="44.708" y2="211.155"/>
	<path style="fill:none;stroke:#00AEEF;stroke-width:2;stroke-linecap:round;stroke-miterlimit:10;" d="M42.309,218.883
		c-0.338,0.28-0.708,0.518-1.114,0.693c-0.524,0.226-1.063,0.335-1.601,0.348"/>
	<path style="fill:none;stroke:#00AEEF;stroke-width:2;stroke-linecap:round;stroke-miterlimit:10;" d="M42.309,218.883
		c1.875-1.553,2.655-4.563,1.725-7.333l-0.417-1.242"/>
	<path style="fill:none;stroke:#00AEEF;stroke-width:2;stroke-linecap:round;stroke-miterlimit:10;" d="M39.594,219.924
		c-2.192,0.05-4.348-1.584-5.229-4.21l-2.478-7.38c-0.124-0.368-0.213-0.74-0.278-1.113"/>
	<path style="fill:none;stroke:#00AEEF;stroke-width:2;stroke-linecap:round;stroke-miterlimit:10;" d="M35.177,200.144
		c2.547-0.779,5.343,0.939,6.379,4.025l1.912,5.693"/>
	
		<line style="fill:none;stroke:#00AEEF;stroke-width:2;stroke-linecap:round;stroke-miterlimit:10;" x1="43.467" y1="209.863" x2="43.617" y2="210.308"/>
	<path style="fill:none;stroke:#00AEEF;stroke-width:2;stroke-linecap:round;stroke-miterlimit:10;" d="M35.177,200.144
		c-0.151,0.046-0.302,0.098-0.451,0.163h0c-2.36,1.016-3.627,3.975-3.116,6.914"/>
</g>
</svg>
