<?xml version="1.0" encoding="utf-8"?>
<!-- Generator: Adobe Illustrator 19.1.0, SVG Export Plug-In . SVG Version: 6.00 Build 0)  -->
<svg version="1.1" id="Layer_1" xmlns="http://www.w3.org/2000/svg" xmlns:xlink="http://www.w3.org/1999/xlink" x="0px" y="0px"
	 viewBox="0 0 257.7 257.7" style="enable-background:new 0 0 257.7 257.7;" xml:space="preserve">
<style type="text/css">
	.st0{fill:#F7941E;}
	.st1{fill:#00AEEF;}
	.st2{fill:#FFFFFF;}
	.st3{fill:#1C75BC;}
	.st4{fill:#1C75BC;stroke:#FFFFFF;stroke-width:7;stroke-miterlimit:10;}
	.st5{fill:#FFFFFF;stroke:#FFFFFF;stroke-width:2;stroke-miterlimit:10;}
</style>
<g>
	<g>
		<g>
			<path class="st0" d="M128.8,253.8c-68.9,0-125-56.1-125-125s56.1-125,125-125s125,56.1,125,125S197.7,253.8,128.8,253.8z
				 M128.8,22.6c-58.5,0-106.2,47.6-106.2,106.2s47.6,106.2,106.2,106.2S235,187.3,235,128.8S187.4,22.6,128.8,22.6z"/>
		</g>
		<g>
			<path class="st0" d="M128.8,253.8c-68.9,0-125-56.1-125-125s56.1-125,125-125s125,56.1,125,125S197.7,253.8,128.8,253.8z
				 M128.8,22.6c-58.5,0-106.2,47.6-106.2,106.2s47.6,106.2,106.2,106.2S235,187.3,235,128.8S187.4,22.6,128.8,22.6z"/>
		</g>
		<g>
			<circle class="st1" cx="128.8" cy="128.8" r="115.6"/>
			<path class="st2" d="M128.8,246.6c-65,0-117.8-52.8-117.8-117.8S63.9,11,128.8,11s117.8,52.8,117.8,117.8
				S193.8,246.6,128.8,246.6z M128.8,15.4c-62.5,0-113.4,50.9-113.4,113.4s50.9,113.4,113.4,113.4s113.4-50.9,113.4-113.4
				S191.3,15.4,128.8,15.4z"/>
		</g>
		<path class="st3" d="M64.4,228.2H49.3c-5.4,0-9.9-4.4-9.9-9.9v0c0-5.4,4.4-9.9,9.9-9.9h15.1c5.4,0,9.9,4.4,9.9,9.9v0
			C74.3,223.8,69.8,228.2,64.4,228.2z"/>
		<g>
			<path class="st2" d="M178.3,56.7c-2.5-10.1-8.7-21.7-18.3-26.6c-11.7-5.9-29.5,6.7-40.2,18.2c-60,0.8-73.4,38.3-75.7,83.7
				c-0.1,2.4-0.3,6.1-0.8,9.5c-2,3.3-3.4,10.6-5.7,23.1C35.7,175,35,181,35.3,188.2c0.3,7.3,0.5,11,3.1,14.2
				c4.8,6.1,15.2,6.4,23.1,4.6c4.5-1,6.7-3.7,7.7-6.8c2.6-4.2,3.1-17.7-0.6-37.4c-0.5-2.8-1.1-5.1-1.6-7.1
				c3.6-9.9,10.9-14.1,11.7-19.3c0.3,1.7,0.6,3.7,0.8,6l-1.6,5.4l1.7-0.4l-2.8,4.8l4.2-1.7L79,163l3.1-1.5l-2,9.2l2-1.8l-3.3,11.5
				l4-2.3l-4.3,7.8H83c0.2,2.9,0.3,4.7,0.3,4.7l130.3-46.9C217.5,94,209.2,68.5,178.3,56.7z"/>
		</g>
		<g>
			<g>
				<path class="st2" d="M60.3,212.6c-3.2,0-5.9-2.4-6.6-5.6l-1.8-9.3c-0.7-3.8,1.6-7.5,5.2-8.3c0.4-0.1,0.9-0.1,1.4-0.1
					c3.2,0,5.9,2.4,6.6,5.6l1.8,9.3c0.7,3.8-1.6,7.5-5.2,8.3C61.3,212.5,60.8,212.6,60.3,212.6z"/>
				<path class="st2" d="M58.5,190.7c2.4,0,4.6,1.8,5.1,4.4l1.8,9.3c0.6,3-1.2,5.9-4,6.5h0c-0.3,0.1-0.7,0.1-1,0.1
					c-2.4,0-4.6-1.8-5.1-4.4l-1.8-9.3c-0.6-3,1.2-5.9,4-6.5l0,0C57.8,190.8,58.2,190.7,58.5,190.7 M58.5,187.7L58.5,187.7
					c-0.6,0-1.1,0.1-1.7,0.2c-4.4,1-7.2,5.4-6.4,10l1.8,9.3c0.8,4,4.1,6.8,8,6.8c0.6,0,1.1-0.1,1.7-0.2c4.4-1,7.2-5.4,6.4-10
					l-1.8-9.3C65.8,190.6,62.4,187.7,58.5,187.7L58.5,187.7z"/>
			</g>
			<g>
				<path class="st2" d="M71.5,212.3c-3.6,0-6.7-3.3-7-7.5L64,197c-0.2-2.3,0.6-4.5,2-6c1.1-1.3,2.7-2,4.3-2l0.2,0
					c3.6,0,6.7,3.3,7,7.5l0.5,7.8c0.2,2.3-0.6,4.5-2,6c-1.1,1.3-2.7,2-4.3,2L71.5,212.3z"/>
				<path class="st2" d="M70.4,190.4c2.8,0,5.3,2.7,5.5,6.1l0.5,7.8c0.2,3.5-1.9,6.4-4.8,6.5c0,0-0.1,0-0.1,0
					c-2.8,0-5.3-2.7-5.5-6.1l-0.5-7.8c-0.2-3.5,1.9-6.4,4.8-6.5h0C70.3,190.4,70.3,190.4,70.4,190.4 M70.4,187.4c-0.1,0-0.2,0-0.2,0
					c-2,0.1-3.9,1-5.3,2.5c-1.7,1.8-2.5,4.4-2.3,7.1l0.5,7.8c0.3,5,4.1,8.9,8.5,8.9c0.1,0,0.2,0,0.2,0c2-0.1,3.9-1,5.3-2.5
					c1.7-1.8,2.5-4.4,2.3-7.1l-0.5-7.8C78.5,191.3,74.8,187.4,70.4,187.4L70.4,187.4z"/>
			</g>
			<g>
				<path class="st2" d="M49.7,217.5c-3.2,0-5.9-2.4-6.6-5.6l-1.8-9.3c-0.7-3.8,1.6-7.5,5.2-8.3c0.4-0.1,0.9-0.1,1.4-0.1
					c3.2,0,5.9,2.4,6.6,5.6l1.8,9.3c0.7,3.8-1.6,7.5-5.2,8.3C50.6,217.4,50.2,217.5,49.7,217.5z"/>
				<path class="st2" d="M47.9,195.6c2.4,0,4.6,1.8,5.1,4.4l1.8,9.3c0.6,3-1.2,5.9-4,6.5h0c-0.3,0.1-0.7,0.1-1,0.1
					c-2.4,0-4.6-1.8-5.1-4.4l-1.8-9.3c-0.6-3,1.2-5.9,4-6.5h0C47.2,195.7,47.6,195.6,47.9,195.6 M47.9,192.6c-0.6,0-1.1,0.1-1.7,0.2
					c-4.4,1-7.2,5.4-6.4,10l1.8,9.3c0.8,4,4.1,6.8,8,6.8c0.6,0,1.1-0.1,1.7-0.2c4.4-1,7.2-5.4,6.4-10l-1.8-9.3
					C55.2,195.5,51.8,192.6,47.9,192.6L47.9,192.6z"/>
			</g>
			<g>
				<path class="st2" d="M39.3,221.3c-2.9,0-5.5-2.1-6.6-5.2l-2.5-7.4c-1.3-4,0.3-8.4,3.7-9.9c0.7-0.3,1.5-0.5,2.3-0.5
					c2.9,0,5.5,2.1,6.6,5.2l2.5,7.4c1.3,4-0.3,8.4-3.7,9.9C40.9,221.2,40.1,221.3,39.3,221.3z"/>
				<path class="st2" d="M36.3,199.9c2.2,0,4.3,1.6,5.1,4.2l2.5,7.4c1.1,3.3-0.2,6.9-2.8,8l0,0c-0.6,0.2-1.1,0.4-1.7,0.4
					c-2.2,0-4.3-1.6-5.1-4.2l-2.5-7.4c-1.1-3.3,0.2-6.9,2.8-8l0,0C35.1,200,35.7,199.9,36.3,199.9 M36.3,196.9L36.3,196.9
					c-1,0-2,0.2-2.9,0.6c-4.1,1.8-6.1,6.9-4.5,11.7l2.5,7.4c1.3,3.7,4.5,6.3,8,6.3c1,0,2-0.2,2.9-0.6c4.1-1.8,6.1-6.9,4.5-11.7
					l-2.5-7.4C43,199.4,39.8,196.9,36.3,196.9L36.3,196.9z"/>
			</g>
		</g>
		<g>
			<path class="st1" d="M61.4,211L61.4,211c-2.8,0.6-5.6-1.3-6.1-4.3l-1.8-9.3c-0.6-3,1.2-5.9,4-6.5l0,0c2.8-0.6,5.6,1.3,6.1,4.3
				l1.8,9.3C66,207.4,64.2,210.3,61.4,211z"/>
			<path class="st1" d="M71.6,210.8L71.6,210.8c-2.9,0.1-5.4-2.7-5.6-6.1l-0.5-7.8c-0.2-3.5,1.9-6.4,4.8-6.5h0
				c2.9-0.1,5.4,2.7,5.6,6.1l0.5,7.8C76.6,207.8,74.5,210.7,71.6,210.8z"/>
			<path class="st1" d="M50.8,215.9L50.8,215.9c-2.8,0.6-5.6-1.3-6.1-4.3l-1.8-9.3c-0.6-3,1.2-5.9,4-6.5h0c2.8-0.6,5.6,1.3,6.1,4.3
				l1.8,9.3C55.4,212.3,53.6,215.2,50.8,215.9z"/>
			<path class="st1" d="M41,219.5L41,219.5c-2.7,1.1-5.7-0.6-6.8-3.9l-2.5-7.4c-1.1-3.3,0.2-6.9,2.8-8l0,0c2.7-1.1,5.7,0.6,6.8,3.9
				l2.5,7.4C45,214.7,43.7,218.3,41,219.5z"/>
		</g>
		<g>
			<g>
				<g>
					<path class="st4" d="M218.7,191.5c-37.9,5.1-76,7.6-114.1,7.2c-6.5-0.2-11.7-7.7-11.8-15c-1-22.3-2-44.6-2.9-66.9
						c-0.6-7.5,4.6-14.9,11.2-15c40.5-0.5,80.9,2.2,121.2,7.6c5.5,1,11.8,6.4,11.2,13.8c-1,18.3-2,36.5-2.9,54.8
						C230.2,185,224.3,190.4,218.7,191.5z"/>
				</g>
				<path class="st4" d="M183,196.1l3.6,27.5c0.2,1.9-1.1,3.5-3,3.7l-30.9,2.6c-2,0.2-3.7-1.5-3.6-3.4l1.6-30.7
					c0.1-1.8,1.6-3.2,3.4-3.1l25.7,0.6C181.4,193.3,182.8,194.5,183,196.1z"/>
				<path class="st4" d="M152,216.6l-16.9,0.5c-2,0.1-2.7,2.8-0.8,3.7l16.4,8.3c1.3,0.6,2.8-0.2,2.9-1.6l0.5-8.9
					C154.1,217.5,153.2,216.6,152,216.6z"/>
			</g>
			<g>
				<g>
					<path class="st3" d="M218.7,191.5c-37.9,5.1-76,7.6-114.1,7.2c-6.5-0.2-11.7-7.7-11.8-15c-1-22.3-2-44.6-2.9-66.9
						c-0.6-7.5,4.6-14.9,11.2-15c40.5-0.5,80.9,2.2,121.2,7.6c5.5,1,11.8,6.4,11.2,13.8c-1,18.3-2,36.5-2.9,54.8
						C230.2,185,224.3,190.4,218.7,191.5z"/>
				</g>
				<path class="st3" d="M183,196.1l3.6,27.5c0.2,1.9-1.1,3.5-3,3.7l-30.9,2.6c-2,0.2-3.7-1.5-3.6-3.4l1.6-30.7
					c0.1-1.8,1.6-3.2,3.4-3.1l25.7,0.6C181.4,193.3,182.8,194.5,183,196.1z"/>
				<path class="st3" d="M152,216.6l-16.9,0.5c-2,0.1-2.7,2.8-0.8,3.7l16.4,8.3c1.3,0.6,2.8-0.2,2.9-1.6l0.5-8.9
					C154.1,217.5,153.2,216.6,152,216.6z"/>
			</g>
		</g>
		<path class="st5" d="M119.6,49.5l-7.2-6.3l3.3,7.6l-7.4-4.2l0.6,3.1l-5.9-3.7l3.5,6.6l-13.8-3.7l3.5,3.1l-2.4,3l-10.3-4.2l2.6,3.7
			l-10.3-0.9l9.2,4.1l-13.8,0.9l6.6,2.6l-14,11.1l-6.6,1.3l3.3,1.7l-10,5c0,0,5.4,0.7,6.1,1.3c0.7,0.6-5.5,3.3-5.5,3.3l4.8,0.6
			l-5.5,4.2l2.2,2.4l-5.9,4.8l4.4,2.8l-6.8,6.3l6.3-0.2L43,112l6.6-0.6l-11.6,9l9.4-0.6l-4.8,4.4l7.2,0.7l-9.8,4.4l8.3,1.7l-8.5,6.5
			l5.4,0.9l-2,5.7l-8.5,1.8l7.9,1.7l-0.2,3.9l-4.6,1.7l3.3,2.2l-5.9,4.2h6.1l-7.2,6.6l4.2,0.2l-4.2,4.6l4.6,0.2l-6.6,10l5-0.6
			l-5.5,8.7l8.3-5.4l6.5-7.4L72.2,74.9L119.6,49.5z"/>
		<polygon class="st2" points="155,26.6 142,22.1 149.6,26.9 138.5,27.4 143.7,28.5 132.6,30.2 138.5,31.6 127,35.5 133.5,36.6 
			155.9,29.4 165.8,34.9 174.1,40.8 166.3,33 172.3,33 161.5,29.7 164.1,25.5 159.1,28 155.9,23 		"/>
		<polygon class="st2" points="183.1,59.2 193.1,60.3 187,62.6 206.4,65.9 195.3,67 210.3,77 183.1,70.3 		"/>
	</g>
	<g>
		<circle class="st2" cx="170.1" cy="152" r="13.6"/>
		<g>
			<path class="st3" d="M176.5,151.7h-12.7c-0.5,0-0.9,0.1-0.8,0.6c0.3,4.6,2.6,8.8,5.7,9.8c0.1,0,0.3,0.1,0.4,0.2l0.7,0.8
				c0.3,0.3,0.7,0.3,1,0l0.7-0.8c0.1-0.1,0.2-0.2,0.4-0.2c3-1,5.4-5.2,5.7-9.8C177.3,151.8,176.9,151.7,176.5,151.7z"/>
			<path class="st3" d="M178.1,150c-0.4-3.5-3-6.9-6.5-7.6c-0.3,0-0.4-0.2-0.3-0.6l0,0c0.1-0.4,0.3-1,0.1-1.1l-0.6-0.1
				c-0.4,0-0.6,0-0.6,0l-0.4,1.4c-0.1,0.1-0.2,0.2-0.3,0.2c-3.9,0.2-7.1,3.8-7.5,7.7c0,0.5,0.3,0.5,0.8,0.5h14.5
				C177.8,150.5,178.2,150.4,178.1,150z"/>
		</g>
	</g>
</g>
</svg>
